<!--?xml version="1.0" encoding="utf-8"?-->
<svg version="1.0" xmlns="http://www.w3.org/2000/svg"
 fill="#ebdbb2"
 width="30px" height="30px" viewBox="0 0 225.000000 225.000000"
 preserveAspectRatio="xMidYMid meet">
<g transform="translate(0.000000,225.000000) scale(0.100000,-0.100000)" stroke="none">
<path d="M982 2239 c-35 -4 -98 -17 -140 -27 -80 -20 -232 -80 -232 -91 0 -3
94 -43 208 -89 l207 -82 57 -143 c31 -78 140 -349 242 -601 l186 -459 -44 -51
c-24 -28 -127 -150 -230 -271 -103 -121 -190 -221 -194 -222 -4 -1 -164 385
-357 858 l-350 861 -51 -55 c-70 -75 -139 -182 -185 -286 -154 -348 -121 -757
87 -1073 61 -94 228 -261 322 -322 370 -243 864 -243 1234 0 94 61 261 228
322 322 243 370 243 864 0 1234 -61 94 -228 261 -322 322 -220 145 -500 209
-760 175z m657 -632 l205 -85 58 -147 57 -147 -126 -149 c-70 -82 -128 -148
-129 -146 -1 1 -55 133 -119 292 -65 160 -135 332 -156 384 -22 51 -39 95 -39
97 0 4 -2 5 249 -99z"/>
</g>
</svg>
